<svg id="Layer_1" data-name="Layer 1" xmlns="http://www.w3.org/2000/svg" viewBox="0 0 544 480"><defs><style>.cls-2{fill:none;stroke:#FFFFF9;stroke-miterlimit:10;stroke-width:5px;}</style></defs><title>Artboard 3 copy</title><path class="cls-2" d="M136.72,33.28h61.65a7,7,0,0,1,6.68,4.92l49,157.64L272,259.2h1.92l17.28-63.36L339,38.29a7.06,7.06,0,0,1,6.76-5h61.81A9.75,9.75,0,0,1,417.28,43V451.84h-60.8V266.24q0-14.72,1-35.84t2.24-43.84q1.28-22.71,2.88-43.84t2.88-35.84h-1.92l-30.08,102.4L291,334.21a7.35,7.35,0,0,1-7,5H258.85a7.59,7.59,0,0,1-7.17-5.11l-43-124.81L179.2,106.88h-1.92q1.27,14.73,2.88,35.84t3.2,43.84q1.59,22.73,2.56,43.84t1,35.84v185.6H126.72V43.28A10,10,0,0,1,136.72,33.28Z"/></svg>