<svg xmlns="http://www.w3.org/2000/svg" viewBox="0 0 295.56 423.56"><defs><style>.cls-1{fill:#fff;stroke:#000;stroke-miterlimit:10;stroke-width:5px;}</style></defs><title>Asset 3</title><g id="Layer_2" data-name="Layer 2"><g id="Layer_1-2" data-name="Layer 1"><path class="cls-1" d="M12.5,2.5H74.15a7,7,0,0,1,6.68,4.92l49,157.64,17.92,63.36h1.92L167,165.06,214.74,7.51a7.06,7.06,0,0,1,6.76-5h61.81a9.75,9.75,0,0,1,9.75,9.75V421.06h-60.8V235.46q0-14.72,1-35.84t2.24-43.84q1.28-22.71,2.88-43.84t2.88-35.84H239.3L209.22,178.5,166.75,303.44a7.35,7.35,0,0,1-7,5H134.63a7.59,7.59,0,0,1-7.17-5.11l-43-124.81L55,76.1H53.06q1.27,14.73,2.88,35.84t3.2,43.84q1.59,22.73,2.56,43.84t1,35.84v185.6H2.5V12.5A10,10,0,0,1,12.5,2.5Z"/></g></g></svg>