<?xml version="1.0" encoding="utf-8"?>
<!-- Generator: Adobe Illustrator 21.0.1, SVG Export Plug-In . SVG Version: 6.00 Build 0)  -->
<svg version="1.1" id="Layer_1" xmlns="http://www.w3.org/2000/svg" xmlns:xlink="http://www.w3.org/1999/xlink" x="0px" y="0px"
	 viewBox="0 0 500 500" style="enable-background:new 0 0 500 500;" xml:space="preserve">
<style type="text/css">
	.st0{fill:none;stroke:#010101;stroke-width:5;stroke-miterlimit:10;}
	.st1{fill:#FFFFFF;stroke:#010101;stroke-width:5;stroke-miterlimit:10;}
</style>
<g id="Layer_2">
	<g id="Layer_1-2">
		<path class="st0" d="M95.5,108.9l-1.7-0.7l-22.9,22.9c1,0.4,2,0.8,2.9,1.2L82,136l22.9-22.9L95.5,108.9z"/>
		<path class="st0" d="M72.5,99.4c-5.7-2.2-11-5.1-15.8-8.7c-3.8-2.9-7.1-6.4-9.7-10.5c-2.5-4-3.8-8.8-3.8-14.6
			c0-10.8,4.2-19.3,12.6-25.4S75.6,31,90,31c11.8,0,22.3,2,31.6,6c9.3,4,17.9,9.6,25.4,16.4l9.9-12.2c3.4-4.2,2.8-10.4-1.4-13.9
			c0,0,0,0-0.1,0c-7.4-5.9-15.6-10.8-24.3-14.5C118.6,7.4,104.9,4.7,90,4.7c-11.3,0-21.7,1.6-31.2,4.7s-17.7,7.5-24.5,13.2
			c-6.7,5.5-12.2,12.3-16.1,20c-3.9,7.7-5.8,16.3-5.8,24.9c0,8.6,1.6,16.3,4.7,22.9c3,6.4,7.1,12.2,12.1,17.1
			c4.9,4.8,10.4,8.9,16.4,12.3c1.4,0.8,2.8,1.6,4.3,2.3L72.5,99.4L72.5,99.4z"/>
		<path class="st1" d="M105.9,113.9"/>
		<line class="st0" x1="104.9" y1="113" x2="82" y2="136"/>
		<path class="st0" d="M166.6,159.6c-2.6-6.4-6.4-12.3-11.2-17.3c-4.9-5.1-10.5-9.4-16.6-13c-3.5-2-7.1-3.9-10.8-5.7l-23,22.9
			c3.2,1.4,6.3,2.9,9.2,4.2c4.8,2.2,9.3,4.9,13.5,8.1c3.8,2.9,6.8,6.6,9,10.8c2.2,4.2,3.2,9.3,3.2,15.3c0,11.5-4.6,20.9-13.7,28
			c-9.1,7.1-22.1,10.6-39,10.7c-12.8,0-25.5-2.7-37.2-8.1c-11.5-5.2-22-12.5-31-21.5l-12,13.8c-3.5,4-3,10.2,1,13.6c0,0,0,0,0.1,0.1
			c9.3,7.8,19.7,14.2,30.9,19c14.5,6.2,30.5,9.4,47.8,9.4c13,0,24.7-1.7,35-5.2c10.3-3.5,19.1-8.3,26.4-14.4
			c7-5.9,12.7-13.2,16.6-21.5c3.9-8.2,5.8-17.2,5.7-26.3C170.8,173.9,169.4,166.3,166.6,159.6z"/>
		<path class="st1" d="M105.1,146.6l23-23"/>
		<path class="st1" d="M94,141.7"/>
	</g>
</g>
<path class="st0" d="M329.7,248h36.5c1.8,0,3.4,1.2,4,2.9l29,93.4l10.6,37.5h1.1l10.2-37.5l28.3-93.4c0.5-1.8,2.2-3,4-3h36.6
	c3.2,0,5.7,2.6,5.8,5.8V496h-36V386c0-5.8,0.2-12.9,0.6-21.2c0.4-8.3,0.8-17,1.3-26c0.5-9,1.1-17.6,1.7-26
	c0.6-8.3,1.2-15.4,1.7-21.2h-1.1l-17.8,60.7l-25.2,74c-0.6,1.8-2.3,3-4.1,3h-14.9c-1.9,0-3.6-1.2-4.2-3l-25.5-74l-17.5-60.7h-1.1
	c0.5,5.8,1.1,12.9,1.7,21.2c0.6,8.3,1.3,17,1.9,26c0.6,9,1.1,17.6,1.5,26s0.6,15.4,0.6,21.2v110h-35.7V253.9
	C323.8,250.6,326.5,248,329.7,248z"/>
<line class="st0" x1="98.7" y1="398.8" x2="400.3" y2="97.1"/>
</svg>
