<svg id="Layer_1" data-name="Layer 1" xmlns="http://www.w3.org/2000/svg" viewBox="0 0 544 480"><defs><style>.cls-2{fill:none;stroke:#FFFFF9;stroke-miterlimit:10;stroke-width:5px;}</style></defs><title>Artboard 3</title><path class="cls-2" d="M291.31,206.18l-2.94-1.26-40.69,40.69c1.74.74,3.49,1.47,5.23,2.17l14.54,6.34,40.64-40.64Z"/><path class="cls-2" d="M250.55,189.34a116.29,116.29,0,0,1-28.12-15.45,71.1,71.1,0,0,1-17.28-18.56q-6.72-10.56-6.72-25.92,0-28.8,22.4-45.12T281.63,68q31.35,0,56,10.56a162,162,0,0,1,45.12,29.12L400.39,86a17.5,17.5,0,0,0-2.63-24.7,187.43,187.43,0,0,0-43.16-25.65q-33.29-14.4-73-14.4-30.09,0-55.36,8.32T182.75,52.94a108.64,108.64,0,0,0-28.48,35.52A97.37,97.37,0,0,0,144,132.62q0,23,8.32,40.64a103.93,103.93,0,0,0,21.44,30.4,137.62,137.62,0,0,0,29.12,21.76q3.79,2.12,7.57,4.1l40.09-40.09Z"/><line class="cls-2" x1="308.1" y1="213.47" x2="267.45" y2="254.12"/><path class="cls-2" d="M417.63,296.14a100.31,100.31,0,0,0-19.84-30.72,133.51,133.51,0,0,0-29.44-23q-9.25-5.4-19.16-10.14L308.45,273q8.55,3.85,16.38,7.48a123.76,123.76,0,0,1,24,14.4,57.77,57.77,0,0,1,16,19.2q5.76,11.2,5.76,27.2,0,30.72-24.32,49.6t-69.12,18.88a156.13,156.13,0,0,1-65.92-14.4,187.93,187.93,0,0,1-55-38.08L135,381.84a17.15,17.15,0,0,0,1.95,24.29,215.85,215.85,0,0,0,54.76,33.69q38.71,16.63,84.8,16.64,34.56,0,62.08-9.28t46.72-25.6a112.51,112.51,0,0,0,29.44-38.08A108.43,108.43,0,0,0,425,336.78Q425,313.73,417.63,296.14Z"/><line class="cls-2" x1="308.45" y1="272.97" x2="349.19" y2="232.24"/></svg>