<svg xmlns="http://www.w3.org/2000/svg" viewBox="0 0 299.14 440.2"><defs><style>.cls-1{fill:#fff;stroke:#000;stroke-miterlimit:10;stroke-width:5px;}</style></defs><title>Asset 1</title><g id="Layer_2" data-name="Layer 2"><g id="Layer_1-2" data-name="Layer 1"><path class="cls-1" d="M163,187.42,160,186.16l-40.69,40.69c1.74.74,3.49,1.47,5.23,2.17l14.54,6.34,40.64-40.64Z"/><path class="cls-1" d="M122.2,170.59a116.29,116.29,0,0,1-28.12-15.45A71.1,71.1,0,0,1,76.8,136.58Q70.08,126,70.08,110.66q0-28.8,22.4-45.12t60.8-16.32q31.35,0,56,10.56A162,162,0,0,1,254.4,88.9L272,67.26a17.5,17.5,0,0,0-2.63-24.7A187.43,187.43,0,0,0,226.24,16.9Q193,2.5,153.28,2.5q-30.09,0-55.36,8.32T54.4,34.18A108.64,108.64,0,0,0,25.92,69.7a97.37,97.37,0,0,0-10.24,44.16q0,23,8.32,40.64a103.93,103.93,0,0,0,21.44,30.4,137.62,137.62,0,0,0,29.12,21.76q3.79,2.12,7.57,4.1l40.09-40.09Z"/><path class="cls-1" d="M181.46,196.29"/><line class="cls-1" x1="179.74" y1="194.72" x2="139.1" y2="235.36"/><path class="cls-1" d="M289.28,277.38a100.31,100.31,0,0,0-19.84-30.72,133.51,133.51,0,0,0-29.44-23q-9.25-5.4-19.16-10.14L180.1,254.22q8.55,3.85,16.38,7.48a123.76,123.76,0,0,1,24,14.4,57.77,57.77,0,0,1,16,19.2q5.76,11.2,5.76,27.2,0,30.72-24.32,49.6T148.8,391a156.13,156.13,0,0,1-65.92-14.4,187.93,187.93,0,0,1-55-38.08L6.65,363.08A17.15,17.15,0,0,0,8.6,387.37a215.85,215.85,0,0,0,54.76,33.69q38.71,16.63,84.8,16.64,34.56,0,62.08-9.28T257,402.82a112.51,112.51,0,0,0,29.44-38.08A108.43,108.43,0,0,0,296.64,318Q296.64,295,289.28,277.38Z"/><path class="cls-1" d="M180.1,254.22l40.74-40.74"/><path class="cls-1" d="M160.49,245.54"/></g></g></svg>